<svg version="1.1" id="Layer_1" xmlns="http://www.w3.org/2000/svg" x="0" y="0" viewBox="0 0 200 117.724" xml:space="preserve"><style>.st1{fill:#fff}.st2{fill:#f7c32c}</style><path d="M146.327 37.763c-4.785-1.591-3.617-3.554-14.422-3.853 0 0 10.631 2.666 6.298 2.939.747 1.869 3.75 3.303 5.167 3.035 1.409-.267 1.726-.921 1.726-.921s-1.142-1.3 1.231-1.2zm44.887 77.194-.683-44.674h-57.924c10.505-2.395 17.954-6.388 18.117-6.425l-1.357 2.772c6.369-2.826 19.259-7.797 17.852-1.667 12.375-2.826 12.588-14.249 10.63-16.503 2.011-1.104 3.054-4.58 2.468-6.5 0 0-9.537-5.361-10.668-7.892-.662-1.479-3.489-3.78-4.8-4.739 8.478-11.417-8.683-25.252-18.69-26.238l1.762 3.507c-5.346-3.992-24.601-4.346-39.709.086l3.11 2.047c-19.33 2.838-33.384 8.806-42.359 13.095l3.769 1.065c-13.162 4.957-24.288 9.155-47.959 25.391 16.593-8.978 44.221-19.245 70.254-20.468 17.58-1.609 26.247 1.636 26.247 1.636s-4.004-3.445-3.127-6.934c.812.547 2.403.58 3.273.566 10.406-.177 13.652 4.749 13.652 4.749s5.397.957 8.15 3.241c5.526 4.589 14.245 9.086 17.808 12.965-.041 1.56-.461 4.152-2.721 4.896 1.436 1.436-.176 6.363-4.77 9.123-1.661.978-3.702 1.697-6.206 1.882.3-2.972-2.706-3.842-4.86-3.21-1.525.448-8.552 2.441-11.485 2.416a6.447 6.447 0 0 0-.483.02c-8.019-.154-14.464-6.853-6.589-12.555-6.237 1.829-10.647 10.122-2.604 16.212-.614.779-1.694 1.685-5.649 2.844-13.082 3.131-25.328-5.847-26.994-7.593l4.56-2.132s-16.843-8.342-27.996-8.738l3.613-1.76c-14.176-3.616-24.588 1.006-24.588 1.006 11.591-2.653 20.419-.13 20.419-.13l-3.536 1.813c12.05.43 28.126 8.043 28.126 8.043l-4.717 2.243c6.054 6.291 12.854 9.951 19.731 11.865H19.396l2.318 4.899-17.189 39.776h186.689z" fill="#14589a"/><path class="st1" d="M46.742 93.727c.718-4.574 4.53-13.209 8.12-16.088 2.123-1.715 5.102-2.864 10.606-2.864 5.974 0 9.661 1.018 8.967 6.234-.634 4.766-3.093 11.571-7.96 16.237-1.759 1.683-5.195 2.787-10.719 2.794-5.523.008-9.878-.812-9.014-6.313zm10.916 1.006c.705 0 1.594-.239 2.272-.818 2.027-1.732 5.452-9.474 5.751-11.607.191-1.362-.208-2.424-2.001-2.423-.548 0-1.447.134-2.068.631-2.161 1.728-5.696 9.946-5.994 11.943-.233 1.563.517 2.276 2.04 2.274zm126.435-19.557h-13.111l.771 2.093-13.663 22.432 7.73-.012 3.076-5.779 6.908-.008-.086 5.774 8.828-.013-.453-24.487zM171.36 89.365l4.639-8.713-.129 8.708-4.51.005zm-75.747-9.348 1.737-4.839H78.882l.713 2.102-8.578 22.542 8.52-.012 4.083-10.846 8.259-.006 1.768-4.921-8.061.004 1.488-4.033 8.539.009zM51.029 75.18H40.844l.64 2.107-2.764 6.745-4.977.002 3.782-8.854H27.347l.616 2.108-9.712 22.61 8.759-.013 4.553-10.706 4.995-.004-4.508 10.703 8.775-.012L51.029 75.18zm64.888-.001-11.314.001c-.727 0-1.748.031-3.349 1.082-2.27 1.478-4.191 6.64-4.408 8.574-.256 2.308 1.906 3.343 3.198 3.95l2.348 1.105c.94.471 2.168 1.043 2.064 2.054-.249 2.405-2.33 2.545-4.065 2.547l-7.739.008-1.937 5.293 11.63-.016c2.451-.004 4.536-.075 6.369-1.721 2.242-2.118 4.002-6.558 4.237-8.983.237-2.482-1.413-3.248-3.125-4.047l-2.627-1.199c-1.192-.465-1.978-.998-1.895-1.792.132-1.262 1.23-2.022 2.614-2.023l6.351-.001 1.648-4.832zm22.559-.001-19.933.001-1.639 4.833 5.737-.002-6.781 19.749 8.663-.012 6.621-19.738 5.78-.002 1.552-4.829zm17.757 14.299c2.971-2.978 4.157-8.158 4.265-10.204.185-3.508-2.093-4.097-5.051-4.097l-15.246.001.827 2.095-7.22 22.462 8.232-.012 2.775-8.605 3.991 8.595 8.399-.014-4.167-8.741c1.23-.188 2.287-.606 3.195-1.48zm-7.916-9.473h1.778c1.085-.001 2.393-.001 2.298 1.549-.063 1.092-.727 3.017-1.881 3.983-.613.503-1.46.634-2.045.634l-2.115.002 1.965-6.168zm-.985-20.066c2.504-.186 4.545-.904 6.206-1.883 4.594-2.76 6.206-7.687 4.77-9.123 2.26-.745 2.68-3.336 2.721-4.896-3.563-3.88-12.283-8.377-17.808-12.965-2.754-2.284-8.15-3.241-8.15-3.241s-3.246-4.926-13.652-4.749c-.87.014-2.461-.019-3.274-.566-.877 3.489 3.128 6.934 3.128 6.934S89.588 17.563 24.409 50.52c26.708-11.857 44.435-5.078 44.435-5.078l-3.613 1.76c11.152.396 27.996 8.738 27.996 8.738l-4.56 2.132c1.667 1.746 13.913 10.723 26.994 7.593 3.956-1.16 5.036-2.065 5.65-2.844-8.044-6.091-3.634-14.383 2.604-16.212-7.875 5.701-1.43 12.4 6.589 12.554.195-.014.363-.021.483-.02 2.933.025 9.959-1.968 11.485-2.416 2.154-.631 5.161.239 4.86 3.211zm-2.236-20.975s-.317.654-1.726.921c-1.417.268-4.42-1.167-5.166-3.035 4.332-.273-6.298-2.939-6.298-2.939 10.804.299 9.636 2.261 14.421 3.853-2.374-.1-1.231 1.2-1.231 1.2zm19.148-1.33c-1.068.203-3.303-.909-3.835-2.352 3.256-.203-4.666-2.267-4.666-2.267 8.086.241 7.181 1.749 10.756 2.988-1.784-.08-.943.924-.943.924s-.244.504-1.312.707zM41.533 110.845c-.188 0-.337-.047-.304-.246a.875.875 0 0 1 .045-.152l2.479-5.868c.034-.085.088-.227.097-.285.026-.151-.069-.237-.151-.275l.054-.142h3.479c.849 0 1.416.219 1.259 1.149-.129.769-.718 2.393-1.616 2.972-.378.248-.83.408-1.858.408h-1.235l-.722 1.71a1.423 1.423 0 0 0-.103.313c-.025.151.069.237.152.275l-.054.141h-1.522zm2.714-3.56h.732c.504 0 .832-.133 1.058-.361.288-.304.623-.997.688-1.386.096-.57-.291-.617-.647-.617h-.83l-1.001 2.364zM70.036 110.845c-.188 0-.338-.047-.304-.246a.875.875 0 0 1 .045-.152l2.48-5.868c.034-.085.087-.227.097-.285.026-.151-.069-.237-.151-.275l.054-.142h3.439c1.028 0 1.59.248 1.414 1.292-.214 1.271-1.162 2.505-2.429 2.515l.318 1.689c.048.248.14.285.367.285h.277l-.327.771c-.141.312-.238.416-.565.416H74c-.325 0-.472-.066-.52-.426l-.324-2.716h-.566l-1.028 2.412c-.039.114-.086.218-.102.313-.026.151.069.237.151.275l-.053.141h-1.522zm2.988-4.187h1.018c.574 0 1.18-.256 1.339-1.205.078-.465-.227-.532-.691-.532h-.929l-.737 1.737zM98.647 110.845c-.188 0-.338-.047-.305-.246a.972.972 0 0 1 .045-.152l2.479-5.868c.034-.085.088-.227.098-.285.026-.151-.069-.237-.151-.275l.054-.142h1.522c.188 0 .338.048.305.248-.007.037-.025.085-.043.133l-2.477 5.858a1.416 1.416 0 0 0-.102.313c-.025.151.069.237.151.275l-.053.141h-1.523zM123.988 110.845c-.188 0-.34-.037-.305-.246a.686.686 0 0 1 .043-.133l2.464-5.896c.032-.075.084-.208.099-.293.027-.162-.06-.229-.165-.257l.074-.142h3.597c1.108 0 1.637.437 1.417 1.747-.164.979-.977 3.457-2.362 4.642-.52.446-1.156.579-2.163.579h-2.699zm1.721-1.187h.821c.83 0 1.199-.199 1.44-.455.375-.409 1.366-2.422 1.552-3.532.114-.674-.338-.75-.733-.75h-1.097l-1.983 4.737zM159.491 104.361c-.194.446-.282.56-.736.56h-2.244l-.631 1.518h2.57l-.351.798c-.11.237-.243.323-.519.323h-1.611c-.425 0-.587.085-.754.485l-.686 1.613h2.115c.534 0 .654-.066.875-.322h.138l-.412.978c-.159.36-.227.531-.781.531h-3.647c-.188 0-.34-.037-.304-.246a.682.682 0 0 1 .042-.133l2.464-5.896c.033-.075.085-.208.099-.293.027-.162-.061-.229-.164-.257l.074-.142h4.675l-.212.483z"/><path class="st2" d="m194.143 117.724-1.354-49.34h-43.277c7.328-3.307 18.488-7.596 15.251-.96 17.092-2.424 16.646-16.193 14.889-18.338 2.193-1.651 2.812-5.199 2.188-7.803 0 0-9.147-5.282-10.699-7.69-.985-1.528-2.418-3.598-4.205-4.462C175.692 17.337 157.581-.294 142.25.003l1.968 3.053c-9.31-3.17-28.712-1.637-41.052 2.692l3.337 1.8C92.18 9.494 73.283 17.138 64.2 22.192l3.299.94c-16.447 6.185-28.987 14.016-42.728 25.15 23.671-16.235 34.797-20.433 47.959-25.39l-3.769-1.065C77.936 17.538 91.99 11.57 111.32 8.731l-3.11-2.047c15.108-4.432 34.363-4.078 39.709-.086l-1.762-3.507c10.007.986 27.168 14.821 18.69 26.238 1.311.96 4.138 3.26 4.8 4.739 1.131 2.531 10.668 7.892 10.668 7.892.586 1.92-.456 5.396-2.468 6.5 1.958 2.254 1.744 13.677-10.63 16.503 1.407-6.131-11.482-1.159-17.852 1.667l1.357-2.772c-.162.036-7.612 4.029-18.117 6.424h57.924l.683 44.674H4.525L21.714 75.18l-2.318-4.899h84.883c-6.876-1.914-13.677-5.573-19.731-11.864l4.717-2.243s-16.075-7.613-28.126-8.043l3.536-1.813s-8.828-2.522-20.419.13c9.673-1.201 16.243.762 16.243.762l-3.6 1.76c4.18.402 15.771 1.18 27.916 7.601l-3.504 1.646s4.401 5.929 12.01 10.165H15.622l3.147 6.796L0 117.724h194.143z"/><g><path class="st2" d="M200 115.354c0 1.244-1.001 2.231-2.272 2.231s-2.286-.987-2.286-2.231c0-1.244 1.015-2.218 2.3-2.218 1.257 0 2.258.974 2.258 2.218zm-3.99 0c0 .987.744 1.772 1.731 1.772.96.013 1.691-.785 1.691-1.759 0-.987-.73-1.785-1.718-1.785-.96 0-1.704.798-1.704 1.772zm1.366 1.15h-.514v-2.218c.203-.028.487-.068.852-.068.419 0 .609.068.757.175.136.095.23.257.23.474 0 .27-.203.446-.46.528v.027c.217.068.325.244.392.541.068.338.121.46.162.541h-.541c-.068-.081-.108-.271-.176-.541-.041-.23-.176-.338-.46-.338h-.244v.879zm.014-1.245h.243c.284 0 .514-.095.514-.324 0-.203-.149-.338-.473-.338-.136 0-.23.013-.284.027v.635z"/></g></svg>